# xmcd
#
# Track frame offsets:
#	150
#	21204
#	43200
#	61342
#	85107
#	107109
#	126244
#	143018
#	159584
#	173917
#	193542
#	209308
#
# Disc length: 3026 seconds
#
# Revision: 1
# Processed by: cddbd v1.5.2PL0 Copyright (c) Steve Scherf et al.
# Submitted via: audiograbber 1.83.01
#
DISCID=a50bd00c
DTITLE=Rory Block - Shake 'Em On Down
DYEAR=2011
DGENRE=Blues
TTITLE0=Steady Freddy
TTITLE1=Mississippi Man
TTITLE2=Kokomo Blues
TTITLE3=Good Morning Little School Girl
TTITLE4=What's The Matter Now?
TTITLE5=Shake 'Em On Down
TTITLE6=Worried Mind
TTITLE7=The Man That I'm Lovin'
TTITLE8=Ancestral Home
TTITLE9=The Breadline
TTITLE10=Woke Up This Morning
TTITLE11=Write Me A Few Of Your Lines
EXTD=
EXTT0=
EXTT1=
EXTT2=
EXTT3=
EXTT4=
EXTT5=
EXTT6=
EXTT7=
EXTT8=
EXTT9=
EXTT10=
EXTT11=
PLAYORDER=
